<?xml version="1.0" encoding="iso-8859-1"?>
<!-- Uploaded to: SVG Repo, www.svgrepo.com, Generator: SVG Repo Mixer Tools -->
<svg fill="#000000" height="800px" width="800px" version="1.1" id="Layer_1" xmlns="http://www.w3.org/2000/svg" xmlns:xlink="http://www.w3.org/1999/xlink" 
	 viewBox="0 0 512 512" xml:space="preserve">
<g>
	<g>
		<g>
			<path d="M480.126,268.015l-36.207-36.207c-0.009-0.009-0.017-0.009-0.026-0.017L214.628,2.517
				c-0.828-0.828-1.835-1.451-2.935-1.894c-0.307-0.111-0.631-0.102-0.947-0.188C210.037,0.247,209.346,0,208.578,0H153.41
				l19.601,29.397c1.971,2.953,1.903,6.81-0.154,9.694l-39.125,54.776l39.125,54.775c2.116,2.97,2.116,6.955,0,9.916l-39.125,54.776
				l39.125,54.775c2.116,2.97,2.116,6.955,0,9.916L133.732,332.8l39.125,54.775c2.116,2.97,2.116,6.955,0,9.916l-33.024,46.242
				h-33.169l-33.033-46.242c-2.116-2.961-2.116-6.946,0-9.916l39.125-54.775l-39.125-54.776c-2.116-2.961-2.116-6.946,0-9.916
				l39.125-54.775l-39.125-54.776c-2.116-2.961-2.116-6.946,0-9.916l39.125-54.775L73.632,39.091
				c-2.057-2.884-2.116-6.741-0.154-9.694L93.079,0H37.911c-4.71,0-8.533,3.814-8.533,8.533v443.733v51.2
				c0,4.719,3.823,8.533,8.533,8.533c4.719,0,8.533-3.814,8.533-8.533V460.8h17.067v42.667c0,4.719,3.823,8.533,8.533,8.533
				c4.719,0,8.533-3.814,8.533-8.533V460.8h17.067v42.667c0,4.719,3.823,8.533,8.533,8.533c4.719,0,8.533-3.814,8.533-8.533V460.8
				h8.533h8.533v42.667c0,4.719,3.823,8.533,8.533,8.533c4.719,0,8.533-3.814,8.533-8.533V460.8h17.067v42.667
				c0,4.719,3.823,8.533,8.533,8.533c4.719,0,8.533-3.814,8.533-8.533V460.8h17.067v42.667c0,4.719,3.823,8.533,8.533,8.533
				c4.719,0,8.533-3.814,8.533-8.533v-51.2V270.498l94.063,94.063l36.198,36.198c1.673,1.664,3.857,2.5,6.033,2.5
				c2.185,0,4.369-0.836,6.033-2.5c3.337-3.336,3.337-8.73,0-12.066l-30.165-30.165l12.066-12.066l30.174,30.165
				c1.664,1.664,3.849,2.5,6.033,2.5c2.176,0,4.361-0.836,6.033-2.5c3.328-3.336,3.328-8.738,0-12.066l-30.174-30.165l12.075-12.075
				l30.165,30.174c1.664,1.664,3.849,2.5,6.033,2.5c2.185,0,4.369-0.836,6.033-2.5c3.336-3.336,3.336-8.738,0-12.066l-36.198-36.207
				c-0.094-0.085-0.205-0.119-0.299-0.196l14.541-9.702l34.031,34.039c1.664,1.664,3.849,2.5,6.033,2.5s4.369-0.836,6.033-2.5
				c3.328-3.337,3.328-8.738,0-12.066l-30.174-30.182l12.066-12.066l30.174,30.174c1.664,1.664,3.849,2.5,6.033,2.5
				s4.369-0.836,6.033-2.5c3.336-3.336,3.336-8.738,0-12.075l-30.174-30.165l12.075-12.066l30.174,30.165
				c1.664,1.672,3.849,2.5,6.033,2.5c2.176,0,4.361-0.828,6.033-2.5C483.454,276.753,483.454,271.352,480.126,268.015z
				 M373.007,284.885l-13.867-52.113l-55.194-9.207l9.19,55.177l50.833,13.38l-16.597,13.269l-43.913-11.546
				c-3.251-0.853-5.7-3.533-6.246-6.852l-11.068-66.389l-66.398-11.068c-0.939-0.162-1.826-0.486-2.637-0.922v-87.211l65.783,10.957
				c3.601,0.597,6.417,3.413,7.014,7.014l11.059,66.389l66.406,11.068c3.302,0.555,5.973,2.987,6.835,6.229l13.355,50.176
				L373.007,284.885z"/>
			<polygon points="219.464,139.093 228.569,193.698 283.182,202.803 274.077,148.19 			"/>
			<polygon points="123.247,228.018 91.068,273.066 123.247,318.122 155.427,273.066 			"/>
			<polygon points="123.247,108.552 91.068,153.599 123.247,198.655 155.427,153.599 			"/>
			<polygon points="123.247,437.585 155.427,392.538 123.247,347.482 91.068,392.538 			"/>
			<polygon points="123.247,79.185 155.546,33.967 132.899,0.004 113.596,0.004 90.949,33.967 			"/>
		</g>
	</g>
</g>
</svg>